<?xml version="1.0" standalone="no"?>
<!DOCTYPE svg PUBLIC "-//W3C//DTD SVG 20010904//EN"
 "http://www.w3.org/TR/2001/REC-SVG-20010904/DTD/svg10.dtd">
<svg version="1.0" xmlns="http://www.w3.org/2000/svg"
 width="1822.000000pt" height="1785.000000pt" viewBox="0 0 1822.000000 1785.000000"
 preserveAspectRatio="xMidYMid meet">

<g transform="translate(0.000000,1785.000000) scale(0.100000,-0.100000)"
fill="#000000" stroke="none">
<path d="M10980 17840 c-113 -4 -224 -8 -247 -9 l-41 -1 -2 -287 c0 -157 -2
-289 -4 -292 -2 -3 -6 -242 -10 -531 -3 -289 -8 -568 -11 -620 -3 -52 -7 -288
-10 -525 -3 -236 -7 -518 -10 -625 -3 -107 -8 -336 -11 -509 -3 -173 -10 -326
-15 -339 -7 -18 -6 -28 2 -32 27 -17 358 -38 739 -46 162 -4 303 -11 313 -16
43 -22 52 -5 -541 -1038 -372 -647 -1070 -1859 -2250 -3905 -251 -434 -464
-806 -473 -825 -14 -29 -130 -230 -358 -623 -16 -28 -45 -41 -78 -35 -11 2
-52 59 -105 148 -48 80 -112 183 -142 230 -30 47 -617 1073 -1306 2280 -689
1207 -1423 2495 -1632 2861 l-381 667 -46 5 c-25 3 -167 6 -316 6 -148 1 -362
3 -475 6 -359 10 -3181 46 -3287 43 l-101 -3 65 -115 c36 -63 378 -668 760
-1345 383 -676 821 -1450 973 -1720 297 -525 2681 -4740 4378 -7740 1482
-2620 1555 -2750 1557 -2752 0 -1 103 176 227 395 206 363 1202 2112 1908
3352 344 605 1468 2579 2433 4275 385 677 820 1442 967 1700 147 259 452 794
677 1190 579 1016 1457 2559 1918 3370 216 380 740 1300 1164 2045 l771 1355
-192 6 c-262 9 -6551 7 -6808 -1z"/>
</g>
</svg>
